<?xml version="1.0" encoding="utf-8"?>
<!-- Generator: Adobe Illustrator 27.5.0, SVG Export Plug-In . SVG Version: 6.00 Build 0)  -->
<svg version="1.1" xmlns="http://www.w3.org/2000/svg" xmlns:xlink="http://www.w3.org/1999/xlink" x="0px" y="0px"
	 viewBox="0 0 499.999 500" style="enable-background:new 0 0 499.999 500;" xml:space="preserve">
<g id="BACKGROUND">
	<rect x="-0.001" y="0.001" style="fill:#FFFFFF;" width="500" height="500"/>
</g>
<g id="OBJECTS">
	<g>
		<g>
			<path style="fill:#F1F1F2;" d="M252.477,48.389C120.923,45.102,78.303,133.194,80.05,216.654
				c0.025,1.225,0.057,2.459,0.091,3.698c9.421,0.016,18.841,0.043,28.263,0.103c12.91,0.082,25.945-0.191,38.775,1.493
				c20.229,2.657,42.274,9.921,53.358,28.343c10.227,16.997,12.155,37.252,14.896,56.48c1.939,13.604,2.207,27.054,2.116,40.779
				c-0.048,7.113-0.104,14.252,0.401,21.354c0.419,5.895,0.685,12.34,3.946,17.5c0.219,0.346,0.458,0.664,0.691,0.99
				c7.47,0.588,15.306,0.908,23.577,0.906c22.248-0.006,41.69-2.522,58.679-6.986c-0.007-0.09-0.009-0.176-0.017-0.266
				c-1.107-12.223-3.514-25.34-0.302-37.437c9.659-36.384,62.497-56.849,93.619-34.997c15.053-28.724,20.181-59.933,21.407-83.914
				C425.589,106.616,370.549,50.7,252.477,48.389z"/>
		</g>
		<g>
			<path style="fill:#E3E3E5;" d="M85.693,418.549c83.994,4.048,166.881,0.741,244.806,0.644c25.79-0.035,51.595-0.068,77.38,0.795
				c9.483,0.152,32.121-0.041,32.121,12.107c0,11.454-37.346,10.729-47.904,11.022c-39.101,1.088-69.502,0.681-104.235,1.022
				c-65.296,0.748-121.361,0.68-194.797-2.009c-24.255-0.889-33.061-1.751-33.063-14.732
				C59.999,421.045,74.166,419.051,85.693,418.549"/>
		</g>
		<g>
			<g>
				<g>
					<g>
						<path style="fill:#F9C03B;" d="M207.733,298.06c-6.088,9.652-21.965,22.817-10.856,29.224
							c4.567,2.835,16.354,8.933,21.857,11.667c4.468,1.896,17.996,11.372,22.498,8.756c6.711-3.9-5.192-13.197-10.477-18.326
							c-6.32-5.967-14.836-10.277-7.811-20.029"/>
					</g>
					<g>
						<g>
							<path style="fill:#A63944;" d="M191.904,325.797c14.963,9.783,31.328,18.956,47.908,25.635
								c2.993,1.205,4.281-3.633,1.329-4.822c-16.144-6.502-32.143-15.603-46.713-25.129
								C191.72,319.711,189.217,324.042,191.904,325.797L191.904,325.797z"/>
						</g>
					</g>
				</g>
				<g>
					<path style="fill:#14161A;" d="M213.51,220.503c41.692,18.874,52.114,30.895,56.495,47.523
						c3.076,11.675-53.776,57.549-60.829,39.477c-7.221-18.502,12.808-25.395,34-36c-16.364-4.609-28.689-10.502-45.666-20.666"/>
				</g>
			</g>
			<g>
				<g>
					<g>
						<path style="fill:#DCDCDE;" d="M364.912,362.362v-52.034c-28.332,0.834-51.129,23.662-51.912,52.006
							C330.263,364.001,347.595,362.296,364.912,362.362z"/>
						<path style="fill:#DCDCDE;" d="M368.433,364.096c-0.607-0.009-1.215-0.009-1.822-0.013v53.301
							c28.938-0.053,52.477-23.063,53.406-51.788C402.818,365.253,385.636,364.345,368.433,364.096z"/>
					</g>
					<g>
						<path style="fill:#DCDCDE;" d="M132.249,360.572c0.196-16.754,0.375-33.507,0.424-50.262
							c-28.176,0.434-51.069,22.617-52.621,50.508C97.451,360.797,114.851,360.691,132.249,360.572z"/>
						<path style="fill:#DCDCDE;" d="M133.929,362.261c-0.215,18.375-0.445,36.749-0.548,55.125c0.044,0,0.086,0.002,0.13,0.002
							c29.574,0,53.551-23.975,53.551-53.549c0-0.613-0.025-1.222-0.047-1.83C169.32,362.031,151.625,362.141,133.929,362.261z"/>
					</g>
				</g>
				<g>
					<g>
						
							<line style="fill:none;stroke:#DD4C5B;stroke-width:5;stroke-linecap:round;stroke-linejoin:round;stroke-miterlimit:10;" x1="76.844" y1="278.836" x2="130.844" y2="364.503"/>
						
							<line style="fill:none;stroke:#DD4C5B;stroke-width:5;stroke-linecap:round;stroke-linejoin:round;stroke-miterlimit:10;" x1="154.844" y1="278.836" x2="133.488" y2="363.837"/>
					</g>
					<g>
						
							<line style="fill:none;stroke:#DD4C5B;stroke-width:5;stroke-linecap:round;stroke-linejoin:round;stroke-miterlimit:10;" x1="312.896" y1="259.798" x2="197.51" y2="271.837"/>
						
							<line style="fill:none;stroke:#DD4C5B;stroke-width:5;stroke-linecap:round;stroke-linejoin:round;stroke-miterlimit:10;" x1="308.844" y1="251.837" x2="366.177" y2="364.503"/>
						
							<line style="fill:none;stroke:#DD4C5B;stroke-width:5;stroke-linecap:round;stroke-linejoin:round;stroke-miterlimit:10;" x1="197.51" y1="271.837" x2="134.177" y2="364.503"/>
						
							<line style="fill:none;stroke:#DD4C5B;stroke-width:5;stroke-linecap:round;stroke-linejoin:round;stroke-miterlimit:10;" x1="130.844" y1="364.503" x2="255.203" y2="364.503"/>
						
							<line style="fill:none;stroke:#DD4C5B;stroke-width:5;stroke-linecap:round;stroke-linejoin:round;stroke-miterlimit:10;" x1="312.896" y1="259.798" x2="255.203" y2="364.503"/>
					</g>
					<g>
						<g>
							<g>
								<path style="fill:#DD4C5B;" d="M308.844,254.337c11.468,1.363,29.327,0.692,29.416-14.711
									c0.098-16.836-19.691-15.69-31.416-15.623c-3.224,0.019-3.226,5.019,0,5c9.248-0.054,25.548-2.335,26.416,10.623
									c0.799,11.912-16.835,10.612-24.416,9.711C305.647,248.958,305.683,253.962,308.844,254.337L308.844,254.337z"/>
							</g>
						</g>
						<g>
							<g>
								<path style="fill:#24272E;" d="M338.154,230.149c-7.504-10.228-20.026-8.77-31.309-8.646c-6.444,0.071-6.451,10.071,0,10
									c6.439-0.071,18.197-2.411,22.675,3.692C333.291,240.337,341.975,235.357,338.154,230.149L338.154,230.149z"/>
							</g>
						</g>
					</g>
				</g>
				<g>
					<rect x="70.488" y="183.837" style="fill:#F9C03B;" width="91.022" height="94.999"/>
					<g>
						<path style="fill:#FFFFFF;stroke:#DD4C5B;stroke-width:2.55;stroke-miterlimit:10;" d="M136.399,239.003
							c0,11.267-9.134,20.399-20.4,20.399c-11.266,0-20.399-9.133-20.399-20.399s9.134-20.401,20.399-20.401
							C127.265,218.601,136.399,227.736,136.399,239.003z"/>
						<g>
							<g>
								<path style="fill:#F9AC2A;" d="M102.443,237.941c0.011-6.576,6.09-11.898,13.579-11.883
									c7.488,0.01,13.551,5.352,13.541,11.925"/>
								<path style="fill:#F9AC2A;" d="M129.554,247.222c-0.001,0.73-0.594,1.322-1.325,1.322l-24.475-0.04
									c-0.73-0.001-1.321-0.595-1.321-1.325l0.003-1.588c0.001-0.73,0.595-1.323,1.325-1.322l24.476,0.041
									c0.729,0.001,1.321,0.595,1.318,1.324L129.554,247.222z"/>
							</g>
							<g>
								<path style="fill:#7D4E24;" d="M129.556,241.306c0,1.105-0.898,2.002-2.003,2.002h-23.115c-1.106,0-2.003-0.896-2.003-2.002
									l0,0c0-1.106,0.896-2.002,2.003-2.002h23.115C128.658,239.304,129.556,240.2,129.556,241.306L129.556,241.306z"/>
							</g>
						</g>
					</g>
					<g>
						<path style="fill:#24272E;" d="M66.499,201.994v-18.966c0-6.627,5.177-12,11.563-12h75.873c6.388,0,11.563,5.373,11.563,12
							v18.966"/>
						<g>
							<g>
								<path style="fill:#A63944;" d="M66.943,204.499c32.705,0,65.409,0,98.113,0c3.224,0,3.224-5,0-5
									c-32.705,0-65.409,0-98.113,0C63.719,199.499,63.719,204.499,66.943,204.499L66.943,204.499z"/>
							</g>
						</g>
					</g>
					<g>
						<g>
							<g>
								<g>
									<path style="fill:#14161A;" d="M81.499,171.102c0,35.22,0,70.44,0,105.66c0,3.225,5,3.225,5,0c0-35.22,0-70.44,0-105.66
										C86.499,167.878,81.499,167.878,81.499,171.102L81.499,171.102z"/>
								</g>
							</g>
							<g>
								<g>
									<path style="fill:#14161A;" d="M145.499,171.102c0,35.22,0,70.44,0,105.66c0,3.225,5,3.225,5,0c0-35.22,0-70.44,0-105.66
										C150.499,167.878,145.499,167.878,145.499,171.102L145.499,171.102z"/>
								</g>
							</g>
						</g>
						
							<line style="fill:none;stroke:#24272E;stroke-width:7;stroke-linecap:round;stroke-linejoin:round;stroke-miterlimit:10;" x1="70.488" y1="278.836" x2="161.51" y2="278.836"/>
					</g>
				</g>
				<g>
					<g>
						<g>
							<path style="fill:#24272E;" d="M379.112,363.837c0,6.959-5.642,12.6-12.601,12.6c-6.959,0-12.6-5.641-12.6-12.6
								c0-6.959,5.641-12.6,12.6-12.6C373.47,351.238,379.112,356.878,379.112,363.837z"/>
							<path style="fill:#505258;" d="M372.308,363.837c0,3.201-2.596,5.796-5.797,5.796c-3.201,0-5.796-2.595-5.796-5.796
								c0-3.201,2.595-5.796,5.796-5.796C369.712,358.042,372.308,360.636,372.308,363.837z"/>
						</g>
						<g>
							
								<circle style="fill:none;stroke:#505258;stroke-width:9;stroke-linecap:round;stroke-linejoin:round;stroke-miterlimit:10;" cx="366.511" cy="363.837" r="63"/>
							<g>
								
									<circle style="fill:none;stroke:#24272E;stroke-width:4;stroke-miterlimit:10;stroke-dasharray:2.9984,2.9884,0,0,0,0;" cx="366.511" cy="363.837" r="63"/>
							</g>
						</g>
					</g>
					<g>
						<g>
							
								<circle style="fill:none;stroke:#505258;stroke-width:9;stroke-linecap:round;stroke-linejoin:round;stroke-miterlimit:10;" cx="133.511" cy="363.837" r="63"/>
							<g>
								
									<circle style="fill:none;stroke:#24272E;stroke-width:4;stroke-miterlimit:10;stroke-dasharray:2.9984,2.9884,0,0,0,0;" cx="133.511" cy="363.837" r="63"/>
							</g>
						</g>
						<g>
							<path style="fill:#24272E;" d="M151.151,363.837c0,9.742-7.897,17.64-17.64,17.64s-17.641-7.898-17.641-17.64
								c0-9.743,7.898-17.641,17.641-17.641S151.151,354.094,151.151,363.837z"/>
							<path style="fill:#505258;" d="M141.625,363.837c0,4.482-3.633,8.114-8.114,8.114c-4.481,0-8.114-3.633-8.114-8.114
								c0-4.482,3.633-8.115,8.114-8.115C137.993,355.722,141.625,359.355,141.625,363.837z"/>
						</g>
					</g>
				</g>
				<g>
					<circle style="fill:#505258;" cx="248.688" cy="361.657" r="16.5"/>
					<g>
						
							<circle style="fill:none;stroke:#FFFFFF;stroke-width:3.993;stroke-linecap:round;stroke-linejoin:round;stroke-dasharray:0,6.0197,0,0,0,0;" cx="248.688" cy="361.657" r="11.5"/>
					</g>
					<circle style="fill:#24272E;" cx="248.688" cy="361.657" r="7"/>
				</g>
			</g>
			<g>
				<g>
					<g>
						<g>
							<path style="fill:#F5BB9C;" d="M249.508,131.837c26-2,10-30.667,28.667-36.667c22.667-8,23.443,22.933,28.667,36
								c-16-0.667-6,16-20.667,18c-11.333,1.333-20.667-10.667-31.333,0"/>
						</g>
						<g>
							<g>
								<g>
									<path style="fill:#24272E;" d="M293.508,124.045c2.418,0,2.418-3.75,0-3.75C291.09,120.295,291.09,124.045,293.508,124.045
										L293.508,124.045z"/>
								</g>
							</g>
							<g>
								<g>
									<path style="fill:#24272E;" d="M282.632,131.486c1.456,2.724,4.146,4.24,7.207,4.309c0.807,0.019,0.805-1.231,0-1.25
										c-2.636-0.06-4.876-1.35-6.127-3.69C283.332,130.144,282.253,130.775,282.632,131.486L282.632,131.486z"/>
								</g>
							</g>
							<g>
								<g>
									<path style="fill:#24272E;" d="M289.528,117.579c2.516,0,5.031,0,7.547,0c1.612,0,1.612-2.5,0-2.5
										c-2.516,0-5.031,0-7.547,0C287.916,115.079,287.916,117.579,289.528,117.579L289.528,117.579z"/>
								</g>
							</g>
						</g>
					</g>
					<g>
						<path style="fill:#24272E;" d="M268.218,129.599c-2.885-20.014,10.449-17.848,8.865-5.931l3.089,0.835
							c2.667-2,8.667-18.667,8.667-22.667c0.667-9.333-6.667-10.666-16-10c-32.833-4.166-12.554,27.76-11.221,35.093
							C261.619,126.93,267.825,129.016,268.218,129.599"/>
					</g>
					<g>
						<g>
							<g>
								<path style="fill:#A63944;" d="M276.998,78.751c0,0.806,0,1.611,0,2.416c0,1.363,1.138,2.5,2.5,2.5s2.5-1.137,2.5-2.5
									c0-0.806,0-1.611,0-2.416c0-1.363-1.138-2.5-2.5-2.5S276.998,77.388,276.998,78.751L276.998,78.751z"/>
							</g>
						</g>
						<g>
							<path style="fill:#DD4C5B;" d="M253.283,104.91c12.854,0.737,36.764,0.917,49.62,1.653c0,0,4.898-24.361-20.475-25.863
								C263.775,79.596,254.126,84.934,253.283,104.91"/>
						</g>
						<g>
							<g>
								<path style="fill:#A63944;" d="M253.249,107.334c21.754,1.525,43.555,2.107,65.333,3.167c3.225,0.157,3.209-4.844,0-5
									c-21.778-1.06-43.579-1.642-65.333-3.167C250.029,102.108,250.051,107.11,253.249,107.334L253.249,107.334z"/>
							</g>
						</g>
					</g>
				</g>
				<g>
					<g>
						<g>
							<path style="fill:#24272E;" d="M207.874,375.902c5.979-1.094,12.011-1.755,18.061-2.262
								c2.807-14.48-0.777-71.593-0.997-74.803c-2.929-42.647-5.932-39.039-18.095-82.667l-52-0.333
								c-3.296,39.549,31.819,58.64,46.667,88.333C201.51,304.17,194.009,351.369,207.874,375.902z"/>
						</g>
						<g>
							<g>
								<path style="fill:#DD4C5B;" d="M177.173,211.327c2.032,25.721,19.235,46.529,29.564,69.277
									c12.954,28.529,6.32,62.07,8.769,92.39c0.258,3.19,5.26,3.216,5,0c-2.395-29.659,3.615-61.864-7.459-90.209
									c-9.378-24.003-28.778-44.938-30.874-71.458C181.921,208.135,176.919,208.11,177.173,211.327L177.173,211.327z"/>
							</g>
						</g>
					</g>
					<g>
						<g>
							<g>
								<path style="fill:#24272E;" d="M218.838,410.413c14.117-2.048,28.117-4.725,42-8c3.137-0.741,1.807-5.561-1.33-4.822
									c-13.883,3.276-27.883,5.953-42,8C214.328,406.052,215.686,410.87,218.838,410.413L218.838,410.413z"/>
							</g>
						</g>
						<g>
							<g>
								<g>
									<path style="fill:#F9C03B;" d="M207.249,374.952c1.333,11.333-2.739,31.552,9.927,29.552
										c5.334-0.666,18.334-3.333,24.334-4.666c4.666-1.334,21.143-2.469,23-7.334c2.768-7.252-12.334-7-19.667-7.666
										c-8.667-0.667-18,1.333-18.667-10.667"/>
								</g>
								<g>
									<path style="fill:#F9AC2A;" d="M221.458,386.544c2.352,4.195,5.923,5.465,10.541,5.707c7.209,0.377,14.94,0.375,16.86-7.13
										c-1.468-0.095-2.843-0.178-4.017-0.284c-8.667-0.667-18,1.333-18.667-10.667l-7.876,0.325
										C218.882,378.599,219.455,382.97,221.458,386.544z"/>
								</g>
							</g>
							<g>
								<g>
									<g>
										<path style="fill:#A63944;" d="M206.997,378.169c6.854-0.026,13.657-0.437,20.332-2.089
											c3.128-0.775,1.801-5.597-1.329-4.822c-6.25,1.549-12.587,1.887-19.003,1.911
											C203.773,373.182,203.771,378.182,206.997,378.169L206.997,378.169z"/>
									</g>
								</g>
								<g>
									<g>
										<path style="fill:#A63944;" d="M211.999,406.501c17.782-1.798,36.331-4.873,53.415-10.089
											c3.074-0.939,1.763-5.766-1.33-4.822c-16.647,5.083-34.758,8.159-52.085,9.911
											C208.823,401.823,208.792,406.826,211.999,406.501L211.999,406.501z"/>
									</g>
								</g>
							</g>
							<g>
								<g>
									<g>
										<path style="fill:#24272E;" d="M227.63,379.305c-1,1.333-2,2.667-3,4c-0.615,0.819-0.133,2.093,0.673,2.565
											c0.958,0.562,1.953,0.144,2.565-0.673c1-1.333,2-2.667,3-4c0.615-0.819,0.133-2.093-0.673-2.566
											C229.238,378.071,228.243,378.489,227.63,379.305L227.63,379.305z"/>
									</g>
								</g>
								<g>
									<g>
										<path style="fill:#24272E;" d="M233.191,382.003c-0.666,1.666-1.333,3.333-2,5c-0.38,0.95,0.407,2.058,1.31,2.306
											c1.069,0.295,1.927-0.361,2.307-1.31c0.667-1.666,1.333-3.333,2-5c0.38-0.95-0.407-2.058-1.31-2.306
											C234.429,380.399,233.571,381.055,233.191,382.003L233.191,382.003z"/>
									</g>
								</g>
								<g>
									<g>
										<path style="fill:#24272E;" d="M239.191,383.753c-0.333,1.416-0.666,2.833-1,4.25c-0.553,2.352,3.063,3.35,3.616,0.996
											c0.333-1.416,0.667-2.833,1-4.25C243.361,382.398,239.745,381.4,239.191,383.753L239.191,383.753z"/>
									</g>
								</g>
							</g>
						</g>
					</g>
				</g>
				<g>
					<g>
						<g>
							<path style="fill:#DD4C5B;" d="M147.51,209.17c7.333-26.666,27.333-44,50-58c15.333-9.333,36-24.666,55.333-20
								c24.667,6,10.667,37.334,0.667,50c-8,10.667-16.667,20-22,32c-1.334,2-3.334,10-4.667,11.333c-4.667,2.667-20.667,0-26,0
								c-20-1.333-37.333-6-53.333-15.999"/>
						</g>
						<g>
							<g>
								<path style="fill:#A63944;" d="M208.921,167.744c10.343-6.442,10.2-17.549,6.088-27.307
									c-6.285,3.581-12.21,7.514-17.499,10.733c-6.717,4.148-13.195,8.594-19.184,13.484
									C187.292,170.758,199.236,173.778,208.921,167.744z"/>
							</g>
							<g>
								<g>
									<path style="fill:#F9C03B;" d="M213.608,140.544c5.227,9.769,4.751,20.515-5.704,26.226c-8.9,4.863-20.96,3.308-28.694-3
										c-1.238-1.01-3.018,0.748-1.768,1.768c8.894,7.255,21.469,8.482,31.723,3.391c11.944-5.93,12.258-19.072,6.6-29.646
										C215.006,137.861,212.848,139.124,213.608,140.544L213.608,140.544z"/>
								</g>
							</g>
						</g>
						<g>
							<g>
								<g>
									<path style="fill:#A63944;" d="M145.239,209.761c8.135,9.729,22.83,13.508,34.654,16.246
										c15.546,3.6,32.65,4.705,48.445,2.397c3.181-0.465,1.824-5.282-1.329-4.821c-14.54,2.125-30.36,0.929-44.685-2.151
										c-11.346-2.44-25.779-5.913-33.55-15.206C146.704,203.749,143.186,207.306,145.239,209.761L145.239,209.761z"/>
								</g>
							</g>
							<g>
								<g>
									<path style="fill:#A63944;" d="M231.034,169.201c-19.368,10.831-30.638,35.369-35.112,56.212
										c-0.675,3.144,4.145,4.481,4.821,1.329c4.202-19.577,14.576-43.025,32.814-53.224
										C236.371,171.945,233.851,167.626,231.034,169.201L231.034,169.201z"/>
								</g>
							</g>
						</g>
					</g>
					<g>
						<g>
							<path style="fill:#F9C03B;" d="M265.006,143.329c-10-17.333-32.666-43.333-50.666-18c-10.667,14,14,11.667,24.666,13
								c8.667,0.667,18,2.333,26.667,5.667"/>
						</g>
						<g>
							<g>
								<path style="fill:#A63944;" d="M270.825,143.406c-9.731-12.686-22.492-23.921-36.564-31.563
									c-2.834-1.539-5.357,2.778-2.523,4.317c13.277,7.21,25.568,17.773,34.769,29.77
									C268.44,148.451,272.788,145.965,270.825,143.406L270.825,143.406z"/>
							</g>
						</g>
					</g>
					<g>
						<g>
							<path style="fill:#A63944;" d="M295.202,213.374c-11.968-7.238-38.838-13.429-39.358-16.538
								c-2.178-13,8.574-64.981-22.037-54.778c-20.847,6.949-2.446,60.528,3.704,70.778c8.488,14.146,37.934,14.146,55.565,15.492
								C293.785,224.677,294.493,217.026,295.202,213.374z"/>
						</g>
						<g>
							<path style="fill:#F5BB9C;" d="M320.176,219.503c-7.317-4.656-17.954-5.675-25.286-3.679
								c-0.496,3.11-1.304,7.167-1.984,10.251c7.796,3.334,12.453,10.059,21.271,9.428
								C325.51,234.837,330.176,226.837,320.176,219.503z"/>
						</g>
						<g>
							<g>
								<path style="fill:#F9C03B;" d="M238.131,147.994c0.492,11.103,1.5,22.142,3.182,33.128c0.844,5.513,1.905,10.99,3.04,16.45
									c0.682,3.282,0.866,7.416,3.186,10.069c4.466,5.111,12.039,7.332,18.296,9.232c8.724,2.648,17.797,4.246,26.837,5.33
									c2.397,0.288,2.37-3.466,0-3.75c-8.272-0.992-16.466-2.581-24.495-4.806c-5.804-1.609-14.329-3.68-18.11-8.847
									c-2.009-2.746-2.119-8.29-2.788-11.587c-0.991-4.88-1.843-9.786-2.597-14.708c-1.547-10.104-2.349-20.305-2.8-30.511
									C241.775,145.585,238.024,145.575,238.131,147.994L238.131,147.994z"/>
							</g>
						</g>
						<g>
							<g>
								<path style="fill:#DD4C5B;" d="M293.595,212.329c-1.655,5.276-2.357,11.146-2.422,16.665c-0.038,3.226,4.962,3.222,5,0
									c0.06-5.112,0.71-10.448,2.244-15.335C299.385,210.573,294.557,209.264,293.595,212.329L293.595,212.329z"/>
							</g>
						</g>
					</g>
				</g>
			</g>
		</g>
	</g>
</g>
<g id="DESIGNED_BY_FREEPIK">
	<g>
		<g id="XMLID_85_">
			<g id="XMLID_104_">
				<path id="XMLID_112_" style="fill:#9EB7C7;" d="M260.103,465.466c-0.432,0.443-0.803,0.932-1.107,1.453l-0.465-0.24
					c-0.068-0.297-0.35-0.502-0.66-0.467c-0.33,0.039-0.566,0.34-0.529,0.67c0.039,0.332,0.34,0.568,0.67,0.529
					c0.066-0.008,0.127-0.025,0.184-0.053l0.451,0.234c-0.25,0.555-0.432,1.139-0.539,1.744l0.748,0.131
					c0.229-1.305,0.85-2.506,1.791-3.473L260.103,465.466z"/>
				<path id="XMLID_111_" style="fill:#9EB7C7;" d="M265.591,463.166c-0.172,0-0.342,0.006-0.51,0.016l-0.074-0.625
					c0.188-0.15,0.297-0.389,0.266-0.645c-0.045-0.392-0.402-0.674-0.795-0.629c-0.393,0.047-0.674,0.402-0.627,0.797
					c0.029,0.254,0.189,0.461,0.404,0.563l0.072,0.625c-0.713,0.115-1.402,0.332-2.059,0.645l0.326,0.686
					c0.933-0.447,1.941-0.674,2.996-0.674c0.496,0,0.992,0.053,1.475,0.158l0.16-0.742
					C266.691,463.224,266.142,463.166,265.591,463.166z"/>
				<path id="XMLID_110_" style="fill:#9EB7C7;" d="M272.193,465.712c0.332-0.041,0.566-0.342,0.525-0.672
					c-0.039-0.332-0.34-0.566-0.672-0.525c-0.309,0.037-0.535,0.303-0.529,0.607l-0.416,0.363c-0.418-0.43-0.891-0.813-1.408-1.139
					l-0.404,0.641c1.135,0.715,2.021,1.727,2.564,2.926l0.689-0.313c-0.25-0.555-0.566-1.072-0.941-1.545l0.402-0.352
					C272.064,465.716,272.128,465.72,272.193,465.712z"/>
				<path id="XMLID_109_" style="fill:#9EB7C7;" d="M265.044,473.373c-0.387,0.023-0.775,0.035-1.158,0.035
					c-0.879,0-1.733-0.061-2.478-0.18c-0.391-0.061-0.846-0.154-1.27-0.291c1.047,1.861,3.068,3.125,5.389,3.125
					c2.855,0,5.262-1.916,5.949-4.504c-0.682,0.449-1.506,0.826-2.459,1.123C267.837,473.048,266.462,473.289,265.044,473.373z"/>
				<path id="XMLID_105_" style="fill:#9EB7C7;" d="M265.591,464.681c-3.351,0-6.08,2.666-6.08,5.943
					c0,0.426,0.047,0.85,0.137,1.262c0.674,0.482,2.707,0.891,5.348,0.73c2.881-0.174,5.297-0.957,6.672-2.158
					c-0.004-0.195-0.02-0.391-0.045-0.582C271.244,466.916,268.65,464.681,265.591,464.681z M263.431,471.197
					c-1.02,0-1.85-0.83-1.85-1.85c0-1.021,0.83-1.852,1.85-1.852s1.85,0.83,1.85,1.852
					C265.281,470.367,264.451,471.197,263.431,471.197z M268.169,470.289c-0.75,0-1.361-0.611-1.361-1.361s0.611-1.359,1.361-1.359
					s1.359,0.609,1.359,1.359S268.919,470.289,268.169,470.289z"/>
			</g>
			<path id="XMLID_102_" style="fill:#9EB7C7;" d="M281.595,466.548c-0.295-0.115-0.807-0.309-1.383-0.238
				c-0.551,0.07-0.844,0.342-0.844,1.008v0.865h2.229v1.717h-2.229v5.455h-1.932V469.9h-1.34v-1.717h1.34v-0.889
				c0-1.68,0.895-2.781,2.568-2.781c0.643,0,1.156,0.121,1.59,0.307V466.548z"/>
			<path id="XMLID_100_" style="fill:#9EB7C7;" d="M286.296,469.88c-0.176-0.029-0.357-0.047-0.525-0.047
				c-0.897,0-1.51,0.549-1.51,1.613v3.908h-1.932v-7.172h1.873v0.785c0.451-0.674,1.139-0.977,2.02-0.977
				c0.414,0,0.848,0.127,1.094,0.336L286.296,469.88z"/>
			<path id="XMLID_97_" style="fill:#9EB7C7;" d="M293.964,471.759c0,0.221-0.016,0.488-0.037,0.65h-5.084
				c0.207,1.037,0.932,1.488,1.842,1.488c0.623,0,1.295-0.252,1.814-0.69l1.133,1.244c-0.814,0.748-1.852,1.088-3.059,1.088
				c-2.197,0-3.723-1.496-3.723-3.752c0-2.258,1.48-3.797,3.627-3.797C292.542,467.992,293.957,469.523,293.964,471.759z
				 M288.849,471.093h3.176c-0.178-0.918-0.732-1.438-1.561-1.438C289.552,469.656,289.021,470.205,288.849,471.093z"/>
			<path id="XMLID_94_" style="fill:#9EB7C7;" d="M301.619,471.759c0,0.221-0.016,0.488-0.037,0.65h-5.086
				c0.207,1.037,0.934,1.488,1.844,1.488c0.621,0,1.295-0.252,1.813-0.69l1.133,1.244c-0.814,0.748-1.85,1.088-3.057,1.088
				c-2.199,0-3.723-1.496-3.723-3.752c0-2.258,1.48-3.797,3.627-3.797C300.197,467.992,301.611,469.523,301.619,471.759z
				 M296.503,471.093h3.176c-0.178-0.918-0.734-1.438-1.563-1.438C297.207,469.656,296.673,470.205,296.503,471.093z"/>
			<path id="XMLID_91_" style="fill:#9EB7C7;" d="M309.962,471.765c0,2.154-1.494,3.775-3.471,3.775
				c-0.961,0-1.643-0.377-2.109-0.932v3.707h-1.924v-10.133h1.887v0.793c0.467-0.586,1.154-0.984,2.139-0.984
				C308.468,467.992,309.962,469.613,309.962,471.765z M304.287,471.765c0,1.133,0.748,1.977,1.842,1.977
				c1.141,0,1.852-0.881,1.852-1.977c0-1.094-0.711-1.975-1.852-1.975C305.035,469.791,304.287,470.634,304.287,471.765z"/>
			<path id="XMLID_88_" style="fill:#9EB7C7;" d="M313.066,465.837c0,0.695-0.539,1.228-1.234,1.228
				c-0.697,0-1.229-0.533-1.229-1.228s0.531-1.244,1.229-1.244C312.527,464.593,313.066,465.142,313.066,465.837z M312.808,475.355
				h-1.932v-7.172h1.932V475.355z"/>
			<path id="XMLID_86_" style="fill:#9EB7C7;" d="M316.031,470.738l2.703-2.555h2.367l-3.479,3.375l3.502,3.797h-2.377l-2.717-2.9
				v2.9h-1.932v-10.658h1.932V470.738z"/>
		</g>
		<g>
			<path style="fill:#9EB7C7;" d="M184.412,475.291v-1.055c-0.527,0.719-1.391,1.23-2.387,1.23c-1.846,0-3.15-1.406-3.15-3.705
				c0-2.256,1.289-3.721,3.15-3.721c0.951,0,1.816,0.469,2.387,1.244v-3.764h1.1v9.77H184.412z M184.412,473.373v-3.209
				c-0.395-0.615-1.244-1.143-2.124-1.143c-1.421,0-2.271,1.172-2.271,2.74c0,1.566,0.85,2.725,2.271,2.725
				C183.167,474.486,184.017,473.988,184.412,473.373z"/>
			<path style="fill:#9EB7C7;" d="M186.931,471.746c0-2.051,1.465-3.705,3.486-3.705c2.139,0,3.398,1.67,3.398,3.793v0.279h-5.728
				c0.088,1.332,1.025,2.445,2.549,2.445c0.806,0,1.626-0.322,2.183-0.893l0.527,0.717c-0.703,0.703-1.655,1.084-2.813,1.084
				C188.44,475.466,186.931,473.958,186.931,471.746z M190.403,468.949c-1.509,0-2.256,1.273-2.314,2.357h4.644
				C192.717,470.251,192.014,468.949,190.403,468.949z"/>
			<path style="fill:#9EB7C7;" d="M194.607,474.353l0.57-0.791c0.469,0.543,1.363,1.012,2.329,1.012
				c1.085,0,1.671-0.514,1.671-1.217c0-1.713-4.381-0.658-4.381-3.281c0-1.098,0.952-2.035,2.637-2.035
				c1.201,0,2.051,0.453,2.623,1.025l-0.514,0.762c-0.424-0.514-1.201-0.895-2.109-0.895c-0.967,0-1.566,0.484-1.566,1.113
				c0,1.553,4.379,0.527,4.379,3.281c0,1.188-0.951,2.139-2.783,2.139C196.306,475.466,195.324,475.115,194.607,474.353z"/>
			<path style="fill:#9EB7C7;" d="M201.476,466.472c0-0.41,0.338-0.746,0.732-0.746c0.41,0,0.747,0.336,0.747,0.746
				c0,0.41-0.337,0.732-0.747,0.732C201.814,467.205,201.476,466.882,201.476,466.472z M201.666,475.291v-7.074h1.099v7.074H201.666
				z"/>
			<path style="fill:#9EB7C7;" d="M204.582,477.107l0.557-0.82c0.586,0.703,1.289,0.967,2.299,0.967c1.172,0,2.271-0.57,2.271-2.123
				v-1.012c-0.514,0.719-1.377,1.26-2.373,1.26c-1.846,0-3.15-1.377-3.15-3.662c0-2.27,1.289-3.676,3.15-3.676
				c0.951,0,1.801,0.469,2.373,1.244v-1.068h1.098v6.869c0,2.344-1.641,3.076-3.369,3.076
				C206.236,478.162,205.416,477.927,204.582,477.107z M209.708,473.255v-3.092c-0.381-0.615-1.23-1.143-2.109-1.143
				c-1.422,0-2.271,1.129-2.271,2.695c0,1.553,0.849,2.695,2.271,2.695C208.478,474.412,209.328,473.871,209.708,473.255z"/>
			<path style="fill:#9EB7C7;" d="M217.413,475.291v-4.629c0-1.244-0.63-1.641-1.582-1.641c-0.864,0-1.685,0.527-2.095,1.1v5.17
				h-1.099v-7.074h1.099v1.025c0.498-0.586,1.465-1.201,2.519-1.201c1.48,0,2.256,0.746,2.256,2.285v4.965H217.413z"/>
			<path style="fill:#9EB7C7;" d="M219.931,471.746c0-2.051,1.465-3.705,3.486-3.705c2.139,0,3.398,1.67,3.398,3.793v0.279h-5.727
				c0.088,1.332,1.025,2.445,2.549,2.445c0.805,0,1.625-0.322,2.182-0.893l0.527,0.717c-0.703,0.703-1.654,1.084-2.813,1.084
				C221.441,475.466,219.931,473.958,219.931,471.746z M223.404,468.949c-1.51,0-2.256,1.273-2.314,2.357h4.643
				C225.718,470.251,225.015,468.949,223.404,468.949z"/>
			<path style="fill:#9EB7C7;" d="M233.349,475.291v-1.055c-0.527,0.719-1.391,1.23-2.388,1.23c-1.845,0-3.149-1.406-3.149-3.705
				c0-2.256,1.289-3.721,3.149-3.721c0.952,0,1.817,0.469,2.388,1.244v-3.764h1.099v9.77H233.349z M233.349,473.373v-3.209
				c-0.396-0.615-1.244-1.143-2.123-1.143c-1.422,0-2.271,1.172-2.271,2.74c0,1.566,0.85,2.725,2.271,2.725
				C232.105,474.486,232.954,473.988,233.349,473.373z"/>
			<path style="fill:#9EB7C7;" d="M239.691,475.291v-9.77h1.1v3.764c0.57-0.775,1.42-1.244,2.387-1.244
				c1.846,0,3.15,1.465,3.15,3.721c0,2.299-1.305,3.705-3.15,3.705c-0.996,0-1.859-0.512-2.387-1.23v1.055H239.691z M242.9,474.486
				c1.436,0,2.285-1.158,2.285-2.725c0-1.568-0.85-2.74-2.285-2.74c-0.865,0-1.729,0.527-2.109,1.143v3.209
				C241.171,473.988,242.035,474.486,242.9,474.486z"/>
			<path style="fill:#9EB7C7;" d="M247.528,477.064c0.161,0.072,0.425,0.117,0.601,0.117c0.483,0,0.806-0.162,1.055-0.748
				l0.469-1.068l-2.959-7.148h1.186l2.358,5.801l2.344-5.801h1.201l-3.545,8.51c-0.425,1.025-1.143,1.422-2.08,1.435
				c-0.234,0-0.601-0.043-0.806-0.103L247.528,477.064z"/>
		</g>
	</g>
</g>
</svg>
